<?xml version='1.0' encoding='utf-8'?>
<svg xmlns="http://www.w3.org/2000/svg" enable-background="new 0 0 1920 1273" version="1.1" viewBox="0 0 1920 1273">
	<path d="m841.98 255.9c87.003 25.419 159.4 100.3 181.69 200.39 19.01 85.352-2.744 169.57-51.712 229.7 66.609-57.125 100.35-148.17 79.941-239.8-23.222-104.26-109.6-178.08-209.92-190.29z" fill="#29ABE2" opacity=".3"/>
	<path d="m1496.2 1179.8l-419.73-419.73c61.561-67.901 99.117-157.95 99.117-256.6 0-210.86-171.55-382.41-382.41-382.41s-382.41 171.55-382.41 382.41 171.55 382.41 382.41 382.41c82.173 0 158.37-26.058 220.78-70.338l423.26 423.25c8.145 8.145 18.818 12.22 29.495 12.22s21.353-4.074 29.495-12.22c16.29-16.291 16.29-42.703 0-58.99zm-1003.6-676.33c0-165.75 134.85-300.6 300.6-300.6s300.6 134.85 300.6 300.6-134.85 300.6-300.6 300.6-300.6-134.85-300.6-300.6z" fill="#1A1A1A"/>
</svg>