<?xml version="1.0" standalone="no"?>
<!DOCTYPE svg PUBLIC "-//W3C//DTD SVG 20010904//EN"
 "http://www.w3.org/TR/2001/REC-SVG-20010904/DTD/svg10.dtd">
<svg version="1.0" xmlns="http://www.w3.org/2000/svg"
 width="64.000000pt" height="64.000000pt" viewBox="0 0 64.000000 64.000000"
 preserveAspectRatio="xMidYMid meet">

<g transform="translate(0.000000,64.000000) scale(0.100000,-0.100000)"
fill="#000000" stroke="none">
<path d="M158 630 c-113 -34 -179 -154 -148 -270 18 -67 91 -135 162 -149 38
-8 64 -8 93 0 54 15 122 22 140 15 13 -5 13 -9 3 -26 -12 -18 -5 -28 77 -110
49 -49 95 -90 101 -90 13 0 54 42 54 56 0 5 -41 50 -90 99 -79 79 -92 88 -109
78 -10 -7 -22 -9 -25 -6 -10 11 -6 93 6 116 6 12 11 47 11 77 0 146 -138 251
-275 210z m119 -15 c36 -11 62 -27 87 -56 45 -49 56 -76 56 -140 0 -111 -87
-199 -199 -199 -63 0 -97 13 -139 53 -47 45 -65 83 -66 142 -1 99 68 187 162
206 20 3 40 7 43 8 3 0 28 -6 56 -14z m113 -360 c-7 -8 -19 -15 -28 -15 -12 0
-10 6 9 26 24 26 41 16 19 -11z m59 -61 c-12 -13 -26 -21 -31 -18 -5 4 0 17
13 30 12 13 26 21 31 18 5 -4 0 -17 -13 -30z m41 -2 c0 -14 -39 -46 -47 -39
-3 4 2 16 12 27 19 21 35 26 35 12z m72 -114 l-22 -22 -40 39 -40 39 22 23 22
24 40 -41 41 -40 -23 -22z m58 -38 c-14 -26 -32 -30 -53 -12 -16 15 -16 17 5
39 20 21 23 22 39 7 14 -12 16 -21 9 -34z"/>
<path d="M129 567 c-102 -68 -108 -211 -12 -284 50 -38 133 -43 188 -11 116
68 111 245 -8 302 -51 24 -127 21 -168 -7z m178 -13 c52 -39 68 -71 68 -133
-1 -74 -33 -121 -100 -146 -74 -29 -139 -9 -189 59 -29 39 -29 133 0 173 40
54 83 75 142 71 31 -3 64 -13 79 -24z"/>
<path d="M584 48 l-19 -23 23 19 c21 18 27 26 19 26 -2 0 -12 -10 -23 -22z"/>
</g>
</svg>
